<svg width="17" height="18" viewBox="0 0 17 18" fill="none" xmlns="http://www.w3.org/2000/svg">
<path d="M9.86757 0.80505C9.5487 0.518561 9.13518 0.360077 8.70651 0.360077C8.27785 0.360077 7.86432 0.518561 7.54546 0.80505L1.17558 6.52867C0.994471 6.69154 0.849633 6.89067 0.750469 7.11314C0.651305 7.33561 0.600031 7.57645 0.599976 7.82002V15.9908C0.599976 16.4516 0.783006 16.8935 1.1088 17.2193C1.4346 17.545 1.87647 17.7281 2.33721 17.7281H4.65353C5.11428 17.7281 5.55615 17.545 5.88195 17.2193C6.20774 16.8935 6.39077 16.4516 6.39077 15.9908V11.3582C6.39077 11.2046 6.45178 11.0573 6.56038 10.9487C6.66898 10.8401 6.81627 10.7791 6.96985 10.7791H10.4443C10.5979 10.7791 10.7452 10.8401 10.8538 10.9487C10.9624 11.0573 11.0234 11.2046 11.0234 11.3582V15.9908C11.0234 16.4516 11.2064 16.8935 11.5322 17.2193C11.858 17.545 12.2999 17.7281 12.7607 17.7281H15.077C15.5377 17.7281 15.9796 17.545 16.3054 17.2193C16.6312 16.8935 16.8142 16.4516 16.8142 15.9908V7.82002C16.8142 7.57645 16.7629 7.33561 16.6637 7.11314C16.5646 6.89067 16.4197 6.69154 16.2386 6.52867L9.86873 0.80505H9.86757Z" fill="#929CAD"/>
</svg>
