<svg width="16" height="18" viewBox="0 0 16 18" fill="none" xmlns="http://www.w3.org/2000/svg">
<path d="M8.39849 0.360077C7.24692 0.360077 6.14251 0.817536 5.32823 1.63182C4.51395 2.4461 4.05649 3.55051 4.05649 4.70208C4.05649 5.85365 4.51395 6.95805 5.32823 7.77233C6.14251 8.58662 7.24692 9.04408 8.39849 9.04408C9.55006 9.04408 10.6545 8.58662 11.4687 7.77233C12.283 6.95805 12.7405 5.85365 12.7405 4.70208C12.7405 3.55051 12.283 2.4461 11.4687 1.63182C10.6545 0.817536 9.55006 0.360077 8.39849 0.360077ZM2.98076 10.1296C2.69488 10.1284 2.41158 10.1837 2.14712 10.2923C1.88266 10.4009 1.64223 10.5606 1.43963 10.7623C1.23703 10.964 1.07623 11.2037 0.966467 11.4677C0.856703 11.7316 0.800128 12.0147 0.799988 12.3006C0.799988 14.1362 1.70421 15.5202 3.11753 16.4222C4.50914 17.3091 6.38489 17.7281 8.39849 17.7281C10.4121 17.7281 12.2878 17.3091 13.6794 16.4222C15.0928 15.5213 15.997 14.1362 15.997 12.3006C15.997 11.7248 15.7683 11.1726 15.3611 10.7654C14.954 10.3583 14.4018 10.1296 13.826 10.1296H2.98076V10.1296Z" fill="#929CAD"/>
</svg>
