<svg width="17" height="17" viewBox="0 0 17 17" fill="none" xmlns="http://www.w3.org/2000/svg">
<path d="M7.08095 1.42622C8.20749 1.4252 9.30903 1.75831 10.2462 2.38344C11.1834 3.00857 11.9141 3.89761 12.346 4.93811C12.7778 5.9786 12.8913 7.1238 12.6722 8.22882C12.453 9.33384 11.911 10.349 11.1148 11.146C10.3186 11.9429 9.30389 12.4858 8.19906 12.706C7.09424 12.9262 5.94894 12.8137 4.90805 12.3828C3.86716 11.9519 2.97745 11.222 2.35147 10.2854C1.72548 9.34879 1.39136 8.24756 1.39136 7.12101C1.39819 5.61367 1.99965 4.16992 3.06503 3.10357C4.13042 2.03722 5.57361 1.43443 7.08095 1.42622V1.42622ZM7.08095 0.360077C5.74376 0.360077 4.4366 0.756599 3.32477 1.4995C2.21294 2.2424 1.34638 3.29832 0.834656 4.53372C0.322937 5.76912 0.189048 7.12851 0.44992 8.44001C0.710792 9.7515 1.35471 10.9562 2.30024 11.9017C3.24578 12.8473 4.45046 13.4912 5.76196 13.752C7.07345 14.0129 8.43285 13.879 9.66825 13.3673C10.9036 12.8556 11.9596 11.989 12.7025 10.8772C13.4454 9.76536 13.8419 8.4582 13.8419 7.12101C13.8419 5.3279 13.1296 3.60823 11.8617 2.34031C10.5937 1.07239 8.87406 0.360077 7.08095 0.360077Z" fill="#929CAD"/>
<path d="M16.7907 16.1131L12.9577 12.2541L12.2192 12.9874L16.0522 16.8464C16.1003 16.8948 16.1576 16.9334 16.2206 16.9598C16.2836 16.9861 16.3512 16.9998 16.4196 17.0001C16.4879 17.0003 16.5556 16.9871 16.6189 16.9612C16.6821 16.9352 16.7396 16.8971 16.7881 16.849C16.8366 16.8008 16.8751 16.7436 16.9015 16.6805C16.9278 16.6175 16.9415 16.5499 16.9418 16.4815C16.942 16.4132 16.9288 16.3455 16.9029 16.2823C16.877 16.219 16.8388 16.1615 16.7907 16.1131Z" fill="#929CAD"/>
</svg>
